<?xml version="1.0" encoding="UTF-8"?>
<svg xmlns="http://www.w3.org/2000/svg" xmlns:xlink="http://www.w3.org/1999/xlink" width="500px" height="500px" viewBox="0 0 500 500" version="1.1">
<g id="surface1">
<path style=" stroke:none;fill-rule:nonzero;fill:rgb(0%,0%,0%);fill-opacity:1;" d="M 237.996094 148 C 239.199219 148.699219 239.5 151.398438 239.5 161.496094 C 239.5 171.597656 239.199219 174.300781 237.996094 175 C 237.003906 175.601562 240.597656 176.003906 248.800781 176.003906 C 259.796875 176.003906 261 175.800781 261 174.199219 C 261 173.300781 261.300781 171.398438 261.699219 170 C 262.296875 167.699219 262.003906 167.902344 258.800781 171.199219 C 255.101562 175.203125 250.601562 176.199219 248.199219 173.800781 C 246.703125 172.296875 246.597656 151.699219 248 148.898438 C 248.996094 147.101562 248.699219 147 242.800781 147 C 238.398438 147 237.003906 147.296875 237.996094 148 Z M 243.5 148.996094 C 243.800781 149.503906 243.398438 150 242.5 150 C 241.597656 150 241.199219 149.503906 241.5 148.996094 C 241.800781 148.402344 242.296875 148 242.5 148 C 242.699219 148 243.199219 148.402344 243.5 148.996094 Z M 244.5 172.101562 C 244.199219 173.300781 243.800781 174.503906 243.398438 174.902344 C 243 175.203125 243 174.699219 243.300781 173.699219 C 243.699219 172.699219 243.398438 172 242.699219 172 C 241.898438 172 242.097656 171.597656 243 171 C 245 169.699219 244.898438 169.699219 244.5 172.101562 Z M 244.5 172.101562 "/>
<path style=" stroke:none;fill-rule:nonzero;fill:rgb(0%,0%,0%);fill-opacity:1;" d="M 216 149.699219 C 205.800781 151.398438 204.902344 151.699219 206.800781 152.898438 C 208.800781 154.097656 212.199219 177 210.699219 178.898438 C 209.699219 180.101562 210 180.199219 212.5 179.699219 C 214.199219 179.398438 219.5 178.601562 224.300781 177.898438 L 232.996094 176.699219 L 232.996094 168.699219 L 230.699219 172.101562 C 228 176.101562 222.699219 178.097656 220.496094 175.898438 C 219.800781 175.097656 218.699219 172.101562 218.199219 169.199219 C 217.296875 164.199219 217.402344 164 219.402344 164 C 220.601562 164 222.199219 164.597656 222.902344 165.203125 C 223.996094 166.300781 224.199219 166.199219 223.601562 164.699219 C 223.300781 163.699219 223 161.898438 223 160.699219 L 223 158.601562 L 221.398438 160.800781 C 219.300781 163.898438 217.402344 163.503906 216.597656 159.898438 C 215.597656 154.597656 215.902344 152.097656 217.902344 151.003906 C 221.199219 149.300781 223.800781 149.902344 227.703125 153.199219 C 230.199219 155.5 231.199219 155.898438 230.699219 154.699219 C 230.300781 153.601562 229.699219 151.699219 229.398438 150.402344 C 228.699219 147.699219 228.898438 147.699219 216 149.699219 Z M 212.003906 155 C 211.199219 155.5 210.300781 155.699219 210.101562 155.402344 C 209.796875 155.101562 210.199219 154.503906 211 154 C 211.800781 153.5 212.703125 153.296875 212.902344 153.601562 C 213.199219 153.898438 212.800781 154.503906 212.003906 155 Z M 212.5 157.996094 C 212.800781 158.5 212.597656 159 212.097656 159 C 211.496094 159 211 158.5 211 157.996094 C 211 157.398438 211.199219 157 211.398438 157 C 211.699219 157 212.199219 157.398438 212.5 157.996094 Z M 212.5 157.996094 "/>
<path style=" stroke:none;fill-rule:nonzero;fill:rgb(0%,0%,0%);fill-opacity:1;" d="M 270.800781 149.199219 C 272 150.699219 268.699219 172.398438 266.898438 174.597656 C 265.5 176.300781 266.101562 176.597656 276.5 178 C 280.898438 178.601562 285.300781 179.398438 286.300781 179.597656 C 287.597656 180 288.398438 179.199219 289.5 176.597656 C 291.597656 171.703125 291.398438 171.5 287.902344 174.398438 C 284.300781 177.5 277.300781 178.097656 276.300781 175.402344 C 275.402344 173 278.800781 152.800781 280.5 151.003906 C 281.902344 149.398438 281.699219 149.199219 277.398438 148.601562 C 270.496094 147.699219 269.597656 147.800781 270.800781 149.199219 Z M 272.699219 173.199219 C 272.902344 174.902344 272.699219 175.097656 272 173.996094 C 271.5 173.199219 271.398438 172.199219 271.597656 171.800781 C 272.398438 170.601562 272.601562 170.800781 272.699219 173.199219 Z M 272.699219 173.199219 "/>
<path style=" stroke:none;fill-rule:nonzero;fill:rgb(0%,0%,0%);fill-opacity:1;" d="M 192.003906 155.5 C 190.597656 156.300781 190.101562 156.902344 190.902344 157 C 192.003906 157 192.097656 158.601562 191.5 165.203125 C 191.101562 169.800781 190.5 174.101562 190.101562 174.796875 C 189.597656 175.699219 187.5 174.101562 183.402344 169.800781 C 180 166.300781 177.097656 162.902344 176.902344 162.199219 C 176.597656 161.199219 175.203125 161.398438 171 162.902344 C 168 164 166.300781 164.898438 167.199219 164.898438 C 168.199219 165 173.898438 169.800781 179.902344 175.601562 L 190.902344 186.101562 L 191.398438 182.800781 C 191.699219 181 192.601562 174.503906 193.300781 168.5 C 194.101562 162.402344 195 156.699219 195.402344 155.699219 C 196.398438 153.699219 195.402344 153.601562 192.003906 155.5 Z M 178.601562 169.199219 C 177.601562 169.800781 176.398438 169.800781 176.003906 169.402344 C 175.496094 168.898438 176.300781 168.398438 177.800781 168.300781 C 180 168.199219 180.199219 168.300781 178.601562 169.199219 Z M 178.601562 169.199219 "/>
<path style=" stroke:none;fill-rule:nonzero;fill:rgb(0%,0%,0%);fill-opacity:1;" d="M 307.996094 168.601562 C 302.800781 173.898438 297.199219 178.800781 295.601562 179.503906 L 292.800781 180.699219 L 295.402344 181.398438 C 297.601562 181.902344 298.601562 181.398438 301.003906 178.601562 L 304 175.203125 L 308.800781 177 C 313.503906 178.800781 313.503906 178.898438 313.398438 183.402344 C 313.398438 187.902344 313.398438 187.996094 317.902344 189.5 C 323.402344 191.398438 323.300781 191.398438 322.199219 189.199219 C 321.703125 188.300781 320.699219 182.097656 320 175.496094 C 318 156.902344 319 157.398438 307.996094 168.601562 Z M 316.398438 167.601562 C 316.898438 169 316.800781 169.101562 315.5 168 C 313.800781 166.597656 313.601562 166 314.898438 166 C 315.398438 166 316.101562 166.699219 316.398438 167.601562 Z M 312.996094 173.097656 C 312.996094 177.398438 312.800781 177.5 308.101562 175.898438 L 304.796875 174.796875 L 308.101562 171.398438 C 309.898438 169.597656 311.699219 168.300781 312.199219 168.601562 C 312.597656 168.898438 312.996094 170.902344 312.996094 173.097656 Z M 312.996094 173.097656 "/>
<path style=" stroke:none;fill-rule:nonzero;fill:rgb(0%,0%,0%);fill-opacity:1;" d="M 226.003906 187.5 C 200.097656 191 177.5 199.503906 161.300781 211.601562 C 152.703125 218 146.902344 225 142.601562 234 C 139.898438 239.800781 139.5 241.5 139.5 249.503906 C 139.597656 260.597656 141.898438 267.003906 149.199219 276.398438 C 161.601562 292.601562 187.703125 305.800781 217.601562 311.101562 C 233.300781 313.898438 264.699219 314.097656 279 311.601562 C 309.796875 306.101562 329.699219 297.199219 345.097656 282 C 354.699219 272.5 358.402344 266.199219 360.101562 256.199219 C 366 223.097656 327.097656 193.5 269.5 187.003906 C 257.5 185.699219 237.703125 185.902344 226.003906 187.5 Z M 286.496094 192.003906 C 311.300781 197.296875 331.300781 207.199219 344.699219 220.800781 C 364.097656 240.300781 362.097656 265.203125 339.800781 284 C 327.097656 294.699219 304.097656 304.699219 282.800781 308.699219 C 269.5 311.199219 230.5 311.199219 217.199219 308.699219 C 187.402344 303 160.5 288.601562 149.300781 272.199219 C 131 245.496094 147.902344 215.398438 190.5 198.699219 C 210 191.101562 224.503906 189 254 189.5 C 272.296875 189.800781 278.402344 190.203125 286.496094 192.003906 Z M 286.496094 192.003906 "/>
<path style=" stroke:none;fill-rule:nonzero;fill:rgb(0%,0%,0%);fill-opacity:1;" d="M 218.699219 205.800781 C 217.902344 206.699219 216.699219 208.699219 216.101562 210.300781 L 215 212.996094 L 194 212.996094 L 194 279 L 224.699219 279 L 225.402344 282.703125 C 227 292.902344 225.300781 297 219.300781 297 C 215.398438 297 214.5 295.902344 217.296875 294.597656 C 219.800781 293.300781 220.800781 288.699219 219 286.496094 C 215.597656 282.398438 208.699219 286 208.699219 292.003906 C 208.699219 296.703125 212.703125 300 218.5 300 C 224.300781 300 225.800781 299.300781 227.601562 295.699219 C 228.898438 293.398438 229.097656 291.101562 228.601562 285.800781 L 227.898438 279 L 267.199219 278.800781 C 305.597656 278.601562 305.898438 278.601562 282.996094 277.898438 C 270.097656 277.601562 252.097656 277.199219 243.097656 277.097656 L 226.699219 277 L 230.101562 274.699219 C 232.5 273.097656 233.898438 271.101562 235 267.699219 L 236.496094 262.996094 L 271.5 262.800781 C 305.597656 262.597656 306 262.597656 285.5 262.003906 C 273.996094 261.601562 258.101562 261.199219 250.300781 261.101562 L 236 261 L 234.601562 257.597656 C 232.996094 253.699219 229.503906 251.101562 224.796875 250.097656 C 223.097656 249.699219 221.5 248.898438 221.199219 248.199219 C 220.902344 247.199219 229.398438 246.902344 262.902344 247 C 286.101562 247.101562 305.101562 246.800781 305.199219 246.300781 C 305.402344 245.902344 286.496094 245.402344 263.199219 245.203125 C 227.601562 245 220.800781 244.800781 220.402344 243.5 C 220.097656 242.800781 221.199219 240.101562 222.902344 237.597656 C 224.597656 235.199219 226.003906 232.597656 226.003906 231.902344 C 226.003906 231 234.699219 230.800781 266 231.300781 C 290.597656 231.601562 306 231.5 306 230.898438 C 306 230.402344 290.398438 230 266.5 230 L 227.097656 230 L 227.800781 226.699219 C 228.199219 225 228.5 221.597656 228.5 219.199219 L 228.5 215 L 266.898438 215 C 287.996094 215 305.101562 214.800781 304.902344 214.5 C 304.597656 214.300781 287.199219 214 266.199219 214 C 230.898438 213.898438 228 213.800781 228 212.199219 C 228 209.402344 224.199219 204 222.199219 204 C 221.101562 204 219.597656 204.796875 218.699219 205.800781 Z M 214.5 222.296875 C 214.5 228.5 214.300781 229.503906 212.800781 229.398438 C 211.800781 229.398438 208.101562 229.300781 204.503906 229.199219 L 198 229 L 198 215 L 214.5 215 Z M 225 218.300781 C 225 220.601562 223.898438 223.199219 221.800781 226.101562 L 218.5 230.5 L 218.199219 226.5 C 218 224.300781 218.300781 220.800781 219 218.699219 C 219.898438 215.699219 220.601562 215 222.5 215 C 224.699219 215 225 215.5 225 218.300781 Z M 215.5 231.902344 C 215.796875 232.398438 213.699219 235.597656 210.800781 238.898438 C 206.101562 244.199219 205.101562 244.898438 201.800781 245 L 198 245 L 198 231 L 206.398438 231 C 211.101562 231 215.101562 231.398438 215.5 231.902344 Z M 202.398438 250.699219 C 201.699219 252.800781 201.101562 256 201.003906 257.703125 C 201.003906 260 200.496094 261 199.503906 261 C 198.300781 261 198 259.601562 198 254 L 198 247 L 203.800781 247 Z M 218.398438 248.5 C 218.800781 249.503906 217.699219 251.398438 215.5 253.601562 C 213.601562 255.5 212.003906 257.996094 212.003906 259 C 212.003906 260.597656 211.300781 261 209 261 C 206.199219 261 206 260.800781 206.601562 258.199219 C 207.5 254.503906 208.898438 251.902344 211.300781 249.199219 C 213.699219 246.703125 217.5 246.300781 218.398438 248.5 Z M 227.097656 259 L 229.503906 261 L 226.5 260.800781 C 224.597656 260.597656 223.402344 259.898438 223.199219 258.699219 C 222.699219 256.398438 224.199219 256.5 227.097656 259 Z M 221 260.101562 C 221 260.597656 220 261 218.898438 261 C 217.097656 261 217.003906 260.800781 218 259.5 C 219.199219 257.996094 221 258.300781 221 260.101562 Z M 203.800781 268 C 205.101562 270.800781 207.398438 273.699219 209.300781 274.902344 L 212.5 277 L 198 277 L 198 270 C 198 264 198.199219 262.996094 199.796875 262.996094 C 200.800781 263.101562 202.398438 264.898438 203.800781 268 Z M 212.703125 265.902344 C 213.699219 268.800781 218.601562 272.800781 219.597656 271.703125 C 220 271.398438 219.300781 269.898438 218.097656 268.398438 C 215.203125 264.699219 215.398438 262.800781 218.699219 263.199219 C 221.398438 263.503906 221.800781 264.300781 223.300781 271.703125 C 223.898438 275 223.898438 275 219.898438 275 C 212.996094 275 207 270.496094 207 265.300781 C 207 261.699219 211.300781 262.199219 212.703125 265.902344 Z M 230 266.101562 C 230 269.402344 228.5 273 227 273 C 226.597656 273 225.898438 271.5 225.496094 269.699219 C 225.097656 268 224.597656 265.699219 224.398438 264.699219 C 223.996094 263.398438 224.503906 262.996094 226.902344 262.996094 C 229.699219 262.996094 230 263.300781 230 266.101562 Z M 230 266.101562 "/>
<path style=" stroke:none;fill-rule:nonzero;fill:rgb(0%,0%,0%);fill-opacity:1;" d="M 91 210.597656 C 90.398438 212.003906 90 215 90 217.402344 C 90 222 88.699219 223.996094 85.597656 223.996094 C 83.898438 223.996094 83.800781 224.199219 85 225 C 86.101562 225.699219 86.101562 226.003906 85.199219 226.003906 C 84.5 226.003906 84.203125 226.398438 84.5 227 C 84.796875 227.5 84.601562 228 84 228 C 83.402344 228 82.5 229.097656 81.800781 230.5 C 81.199219 231.800781 80 233.101562 79.097656 233.300781 C 78 233.601562 78.199219 233.800781 79.597656 233.898438 C 80.800781 233.898438 82.300781 233.300781 82.996094 232.5 C 83.699219 231.699219 83.898438 231 83.5 231 C 83.101562 231 83.300781 230.300781 84 229.503906 C 85.300781 227.898438 87.003906 228.402344 87.003906 230.300781 C 87.003906 231 86.601562 230.898438 86 230 C 85.5 229.199219 85 228.699219 84.898438 229 C 84 234.601562 84.203125 236.496094 85.597656 238.199219 C 86.601562 239.199219 86.898438 240 86.398438 240 C 85.902344 240 84.898438 239.097656 84.203125 237.996094 C 83.5 236.898438 82.5 236 82 236 C 81.398438 236 82 237.199219 83.402344 238.699219 C 85 240.398438 85.5 241.699219 84.898438 242.097656 C 84.300781 242.402344 83.800781 243.097656 83.800781 243.601562 C 83.699219 245.800781 81.699219 249.398438 81.300781 248.199219 C 81 247.296875 80.300781 247.800781 79.398438 249.503906 C 78.601562 251.003906 78 252.398438 78 252.703125 C 78 253.699219 83.898438 248.402344 83.898438 247.398438 C 84 246.800781 85.101562 244.597656 86.496094 242.601562 C 87.800781 240.597656 88.503906 239 87.996094 239 C 87.402344 239 87.003906 238.503906 87.003906 237.996094 C 87.003906 236.496094 91.699219 236.800781 92.199219 238.199219 C 92.5 238.898438 91.800781 240.796875 90.699219 242.5 C 89.699219 244.101562 89.097656 244.699219 89.402344 243.699219 C 89.699219 242.601562 89.597656 242.097656 89 242.5 C 87.703125 243.300781 87.703125 244.199219 89.199219 247.699219 C 89.800781 249.199219 90.203125 250.898438 90.101562 251.5 C 90 252 90.398438 251.902344 91.101562 251.199219 C 92.601562 249.796875 94.402344 249.597656 93.5 250.898438 C 93.199219 251.5 94.199219 251.800781 95.601562 251.699219 C 97.199219 251.597656 98.5 252.097656 98.800781 253 C 99.199219 254.199219 98.996094 254.300781 97.902344 253.199219 C 97.199219 252.601562 96.199219 252 95.800781 252 C 94.402344 252 94.898438 256.699219 96.5 257.996094 C 98.199219 259.402344 98.5 261 97 261 C 96.5 261 96 260.300781 96 259.5 C 96 258.601562 95.300781 257.703125 94.5 257.398438 C 93.699219 257 93 255.898438 93 254.699219 C 93 253 92.402344 253.5 89.800781 256.800781 C 87.996094 259.097656 85.800781 261 85 261 C 83.898438 261 83.402344 261.800781 83.402344 263.199219 C 83.5 264.898438 82.902344 265.5 81.5 265.5 C 77.300781 265.5 80.402344 258.101562 84.699219 257.902344 C 86 257.800781 85.902344 257.597656 84.203125 257.199219 L 81.902344 256.5 L 84 254.199219 C 85.101562 253 85.699219 252 85.199219 252 C 84 252 81.902344 254.699219 79.199219 259.601562 C 76.902344 263.898438 76.199219 271.703125 77.5 278 C 78.699219 283.699219 82 286.398438 82 281.601562 C 82 280.199219 83.300781 277.800781 85 276.199219 C 86.699219 274.503906 87.996094 272.800781 87.996094 272.296875 C 87.996094 271.902344 89.402344 270 91.101562 268.199219 L 94.101562 264.800781 L 98.5 267.097656 L 102.800781 269.402344 L 100.097656 271.101562 C 96.101562 273.5 93.300781 282.800781 95.902344 284.402344 C 97.296875 285.300781 97.902344 282.800781 96.800781 280.597656 C 96.101562 279.398438 96.101562 279 96.800781 279.398438 C 97.296875 279.699219 97.699219 279.199219 97.699219 278.199219 C 97.699219 275.601562 99.101562 272 100.097656 272 C 100.601562 272 101.300781 272 101.699219 271.902344 C 102.097656 271.902344 102.800781 272.800781 103.199219 273.996094 C 103.601562 275.203125 103.601562 275.898438 103.097656 275.496094 C 102.601562 275.203125 101.902344 276.300781 101.5 278 C 101.101562 279.597656 100.300781 281 99.597656 281 C 98.800781 281 98.402344 282 98.5 283.5 C 98.800781 285.800781 98 286.496094 95.601562 286.101562 C 95.097656 286 95.097656 286.699219 95.496094 287.703125 C 95.902344 288.699219 96.5 290.300781 96.703125 291.199219 C 97 292.199219 97.601562 293 97.902344 293 C 99.101562 293 102.800781 288.601562 103.800781 286 C 104.796875 283.601562 104.902344 283.601562 106.902344 288.199219 C 108.101562 290.796875 110.101562 293.5 111.300781 294.101562 C 112.5 294.800781 113.898438 295.902344 114.300781 296.597656 C 115.5 298.800781 116.597656 298.300781 118 295 C 119.300781 291.800781 118.199219 289 115.5 289 C 114.800781 289 114 288.300781 113.601562 287.5 C 113.300781 286.699219 113.503906 286 113.898438 286 C 114.402344 286 115.101562 286.601562 115.300781 287.199219 C 115.699219 287.996094 115.902344 287.902344 115.902344 286.898438 C 116 286 113.898438 282.902344 111.300781 280 C 107.800781 276.101562 106.5 275.203125 105.800781 276.199219 C 105.199219 277.097656 105.101562 276.699219 105.5 275.097656 C 106 273.5 105.898438 273 105.101562 273.402344 C 104.398438 273.898438 104.300781 273.5 104.699219 272.398438 C 105.300781 270.699219 105.402344 270.699219 106.398438 272.398438 C 107 273.402344 108.101562 274.902344 108.800781 275.800781 C 110.101562 277.398438 110.101562 277.398438 109.601562 275.699219 C 109.300781 274.597656 109.601562 273.996094 110.5 273.996094 C 112.199219 273.996094 112.5 275.601562 110.902344 276.5 C 110.199219 277 110.5 277.703125 111.699219 278.5 C 113.601562 279.902344 125 280.300781 125 279.097656 C 125 276.800781 114.898438 269.5 112.800781 270.300781 C 112.003906 270.601562 112.402344 271.199219 114 271.800781 C 115.398438 272.398438 117.902344 274.101562 119.5 275.496094 C 122.5 278.097656 122.5 278.097656 120 277.800781 C 118.601562 277.601562 117.5 277 117.5 276.300781 C 117.5 275.097656 116.300781 273.601562 115.203125 273.402344 C 112.703125 272.902344 110 271.597656 110 271 C 110 270.601562 108.699219 270 107 269.699219 L 104.097656 269.101562 L 106.300781 265.699219 C 108.101562 262.800781 108.800781 262.402344 110.402344 263.199219 C 111.398438 263.800781 114.097656 263.898438 116.398438 263.503906 C 118.601562 263.199219 122 262.800781 123.800781 262.800781 C 127.898438 262.597656 127.800781 261.398438 123.300781 257.300781 C 120.699219 254.902344 120 253.601562 120.800781 253.097656 C 121.5 252.703125 122 250.800781 122 248.898438 C 121.902344 247 122.199219 243.398438 122.601562 240.796875 C 123.199219 236.199219 123.199219 236.199219 117.199219 230.101562 C 113.601562 226.398438 110.402344 223.996094 109.097656 223.996094 C 107.996094 223.996094 107 224.398438 107 224.902344 C 107 225.402344 107.996094 225.601562 109.203125 225.203125 C 110.597656 224.902344 111.101562 225.097656 110.597656 225.800781 C 110.199219 226.398438 110.902344 227 112.199219 227.199219 C 113.699219 227.398438 114.5 228.199219 114.5 229.503906 C 114.5 230.597656 115.101562 231.601562 115.796875 231.601562 C 118.300781 231.902344 118.5 232.097656 117.003906 232.996094 C 115.796875 233.800781 115.902344 234 117.699219 234 C 120.601562 234 121.398438 235.5 119.5 237.296875 C 118.199219 238.601562 118.300781 238.800781 119.898438 239.300781 C 121.300781 239.597656 121.597656 240.398438 121.300781 242.402344 C 120.601562 245.800781 119.402344 245.699219 117.601562 242.199219 C 116.800781 240.597656 115.398438 238.800781 114.597656 237.996094 C 113.398438 237.097656 113.300781 236.398438 114 235.5 C 114.800781 234.601562 114.699219 234.300781 113.800781 234.402344 C 113.101562 234.402344 112.402344 234.097656 112.296875 233.601562 C 112.199219 233.101562 111.101562 232.199219 109.796875 231.5 C 108.5 230.898438 107.597656 229.796875 107.703125 229.199219 C 107.902344 228.5 107.300781 228 106.398438 228 C 105.597656 228 105.101562 227.601562 105.402344 227.097656 C 105.699219 226.597656 104.597656 226.300781 102.898438 226.398438 C 100 226.597656 99.902344 226.5 101.597656 225.203125 C 103.402344 223.898438 103.402344 223.800781 101.300781 224.503906 C 100 224.796875 98.996094 224.699219 98.996094 224.300781 C 98.996094 223.800781 97.5 223 95.800781 222.5 L 92.5 221.5 L 92.601562 214.699219 C 92.601562 211 92.5 207.996094 92.296875 207.996094 C 92.097656 207.996094 91.5 209.203125 91 210.597656 Z M 96.199219 224.398438 C 96.5 224.101562 97.101562 224.398438 97.5 225 C 97.800781 225.601562 97.800781 226.003906 97.296875 225.898438 C 94.402344 225.402344 92.003906 226.199219 92.003906 227.703125 C 92.003906 228.601562 91.800781 229.097656 91.5 228.800781 C 91.199219 228.5 91.300781 226.902344 91.597656 225.097656 C 92.199219 222.199219 92.402344 222.101562 94 223.5 C 94.898438 224.300781 95.902344 224.699219 96.199219 224.398438 Z M 89.597656 225.203125 C 90.101562 225.898438 89.898438 226.003906 89 225.496094 C 88.101562 225 87.996094 225.300781 88.503906 226.902344 C 88.800781 228.097656 88.699219 229 88.101562 229 C 86.398438 229 85.800781 227 87.003906 225.496094 C 88.503906 223.699219 88.699219 223.699219 89.597656 225.203125 Z M 106.398438 230.300781 C 108.402344 232.097656 110 234.097656 110 234.699219 C 110 235.300781 111.300781 237.003906 112.800781 238.503906 C 115 240.5 115.5 241.800781 115.203125 244.101562 L 114.800781 247 L 112.902344 244.597656 C 111.800781 243.300781 111 241.699219 111 241 C 111 240.398438 110.597656 240.203125 110 240.5 C 109.5 240.796875 109 240.597656 109 240.101562 C 109 239.5 108.402344 239 107.597656 239 C 106.800781 239 105.402344 238.300781 104.597656 237.402344 C 103.699219 236.601562 103 236.199219 103 236.601562 C 103 237.003906 102.300781 236.496094 101.5 235.402344 C 100.699219 234.402344 100 234 100 234.601562 C 100 236 103.5 239.097656 108.300781 241.898438 C 110.300781 243.199219 112.003906 244.699219 112.003906 245.300781 C 112.003906 246.5 114.898438 250 115.902344 250 C 116.300781 250 116.5 248.402344 116.5 246.5 C 116.398438 244.597656 116.699219 243.300781 117.199219 243.601562 C 117.601562 243.898438 118 245.300781 118 246.703125 C 118 248.800781 118.199219 249.101562 119.5 248 C 120.699219 247 121 247.101562 121 248.699219 C 121 251.300781 114.800781 251.101562 109.300781 248.199219 C 107 247 104.398438 246 103.5 246 C 102.601562 246 100.800781 244.898438 99.398438 243.5 C 98.097656 242.199219 96.597656 240.902344 96.199219 240.796875 C 95.800781 240.597656 95.496094 239.699219 95.601562 238.800781 C 95.601562 237.597656 94.597656 236.800781 92.296875 236.398438 C 88.898438 235.800781 88.101562 234.699219 90.203125 233.402344 C 90.796875 232.996094 91.898438 233.5 92.601562 234.402344 C 93.300781 235.402344 94.300781 235.902344 94.898438 235.5 C 95.496094 235.199219 96 235.402344 96 235.902344 C 96 237.703125 97.902344 237.097656 98.996094 235.101562 C 99.699219 233.699219 99.699219 232.300781 98.996094 230.5 C 98.097656 228.199219 98.199219 227.898438 99.503906 228.402344 C 100.300781 228.699219 101.003906 228.5 101.003906 228 C 101.003906 226.199219 102.703125 227 106.398438 230.300781 Z M 95 229 C 95 229.503906 94.5 230 93.898438 230 C 93.398438 230 93.199219 229.503906 93.5 229 C 93.800781 228.402344 94.300781 228 94.597656 228 C 94.800781 228 95 228.402344 95 229 Z M 91 230.898438 C 91 232.597656 89.199219 232.996094 88.601562 231.5 C 88.300781 230.597656 88.601562 230 89.5 230 C 90.300781 230 91 230.402344 91 230.898438 Z M 97.101562 232.300781 C 97 233.5 95.601562 233.199219 95.203125 231.902344 C 94.898438 231.300781 95.300781 230.898438 96 231.101562 C 96.597656 231.398438 97.101562 231.902344 97.101562 232.300781 Z M 87.703125 234 C 87.902344 236.199219 86.496094 236.699219 85.402344 234.898438 C 84.898438 234 85.902344 232.703125 87.5 232 C 87.597656 232 87.597656 232.902344 87.703125 234 Z M 95 243.097656 C 95 243.601562 94.300781 244 93.5 244 C 92.003906 244 91.5 242.800781 92.601562 241.699219 C 93.398438 240.902344 95 241.800781 95 243.097656 Z M 92.003906 247.5 C 92.003906 248.300781 91.597656 248.996094 91 248.996094 C 90.5 248.996094 90 248.300781 90 247.5 C 90 246.703125 90.5 246 91 246 C 91.597656 246 92.003906 246.703125 92.003906 247.5 Z M 97 247.398438 C 97 249.199219 95.300781 250.300781 94 249.503906 C 93.199219 248.996094 93.300781 248.402344 94.101562 247.398438 C 95.601562 245.601562 97 245.601562 97 247.398438 Z M 100.601562 248.699219 C 99.597656 249.699219 98.699219 248.199219 99.597656 246.902344 C 100.203125 245.800781 100.402344 245.800781 100.800781 246.902344 C 101.003906 247.601562 100.898438 248.402344 100.601562 248.699219 Z M 110.101562 249.597656 C 112.800781 251.101562 114.898438 252.800781 114.699219 253.402344 C 114.402344 254 114.898438 255.101562 115.597656 255.800781 C 116.800781 256.902344 117.097656 256.800781 117.699219 255.402344 C 118 254.503906 117.699219 253.402344 116.898438 252.800781 C 115.699219 252 115.699219 251.902344 116.898438 252.199219 C 117.699219 252.398438 119 253.601562 119.800781 254.796875 C 121.101562 256.800781 121.101562 257 119.5 256.398438 C 118.199219 255.898438 117.902344 256.199219 118.097656 257.5 C 118.300781 258.5 119.199219 259.5 120 259.699219 C 121.300781 260.101562 121.300781 260 120 259 C 118.800781 258.101562 119 257.996094 121 258.601562 C 125.496094 259.796875 126.800781 260.902344 123.800781 261 C 120 261 119.699219 261.101562 117.800781 262.097656 C 116.597656 262.800781 115.699219 262.402344 114.402344 260.800781 C 112.800781 258.5 112.800781 258.5 113.300781 260.597656 L 113.800781 262.800781 L 110.402344 260.800781 C 107.996094 259.402344 107 258.101562 107 256.398438 C 107 253.296875 110.300781 253.199219 111.800781 256.199219 L 112.996094 258.5 L 112.703125 256 C 112.597656 254.097656 111.898438 253.402344 109.699219 253.199219 C 108.199219 253 107.199219 252.5 107.398438 252.097656 C 107.703125 251.800781 107 251.398438 105.898438 251.398438 C 103.699219 251.398438 103.699219 251.5 105 254.097656 C 106.199219 256.300781 105 256.601562 101.902344 255 C 99.902344 253.898438 99.199219 250 101.101562 250 C 101.597656 250 101.902344 250.402344 101.5 250.898438 C 101.199219 251.398438 101.5 252.199219 102.199219 252.601562 C 102.898438 253 103.199219 253 102.800781 252.5 C 102.398438 252.097656 102.5 251.003906 103.199219 250.300781 C 104.097656 249.199219 104.097656 248.601562 102.898438 247.902344 C 99.503906 245.800781 105.300781 247.101562 110.101562 249.597656 Z M 100.402344 257.097656 C 99.796875 258.199219 98 257.300781 98 256 C 98 255.5 98.699219 255.300781 99.503906 255.597656 C 100.300781 256 100.699219 256.601562 100.402344 257.097656 Z M 93.199219 260.597656 C 92.699219 265 90.796875 266.5 88.699219 264.199219 C 87.097656 262.402344 87.097656 262.199219 89.097656 259.601562 C 91.699219 256.300781 93.601562 256.699219 93.199219 260.597656 Z M 105.5 259.097656 C 105.101562 259.601562 105.402344 260 105.898438 260 C 107.5 260 107.300781 262.703125 105.699219 263.699219 C 104.902344 264.097656 104 265.300781 103.699219 266.300781 C 102.898438 268.5 100.601562 268.097656 100.203125 265.699219 C 100 264.5 100.496094 264 102 264 C 103.097656 264 104 263.398438 103.898438 262.703125 C 103.5 259.601562 104.097656 256.902344 105 257.5 C 105.597656 257.902344 105.800781 258.601562 105.5 259.097656 Z M 98.996094 264 C 98.996094 265.101562 98.601562 266 98 266 C 97.5 266 97 265.101562 97 264 C 97 262.902344 97.5 262.003906 98 262.003906 C 98.601562 262.003906 98.996094 262.902344 98.996094 264 Z M 88.398438 265.5 C 88.699219 266.300781 88.503906 268.199219 87.996094 269.597656 C 87.003906 272.199219 81.902344 279 81 279 C 80.699219 279 79.597656 277.601562 78.699219 276.003906 C 77.703125 274.300781 77.398438 273 77.898438 273 C 78.5 273 79 273.300781 79 273.699219 C 79 274.199219 80.101562 274.597656 81.5 274.597656 C 83.601562 274.796875 83.699219 274.597656 82.5 273.300781 C 81.699219 272.5 81 271.597656 81 271.199219 C 81.101562 270 84 266.597656 84.097656 267.601562 C 84.097656 268.097656 84.5 267.5 85 266.199219 C 86.101562 263.699219 87.5 263.300781 88.398438 265.5 Z M 81 268.898438 C 79.503906 271.800781 78 272.398438 78 270.203125 C 78 268 78.800781 267.003906 80.699219 267.003906 C 81.699219 267.003906 81.800781 267.5 81 268.898438 Z M 116 277 C 116 278.097656 115.597656 279 115.101562 279 C 114.597656 279 114 278.097656 113.699219 277 C 113.398438 275.699219 113.699219 275 114.597656 275 C 115.398438 275 116 275.898438 116 277 Z M 104.398438 281.300781 C 104.097656 282.199219 103.402344 282.996094 102.898438 282.996094 C 102.398438 282.996094 102 284 102 285.199219 C 102 286.699219 101.699219 287.097656 101.003906 286.398438 C 100.300781 285.699219 100.496094 284.097656 101.5 281.5 C 102.601562 279.097656 103.5 278.097656 104.097656 278.699219 C 104.597656 279.199219 104.796875 280.402344 104.398438 281.300781 Z M 81 281.601562 C 81 282.398438 80.5 282.800781 80 282.5 C 79.398438 282.097656 79.199219 281.398438 79.503906 280.898438 C 80.402344 279.503906 81 279.796875 81 281.601562 Z M 112.199219 282.902344 C 112.5 282 112.902344 282.199219 113.300781 283.402344 C 113.699219 284.5 113.601562 284.898438 112.902344 284.402344 C 112.097656 284 112.003906 284.796875 112.5 287.097656 C 113.503906 291.699219 114 292.296875 115.5 291 C 117.601562 289.300781 118.601562 291.898438 116.597656 293.800781 C 115 295.402344 114.800781 295.402344 113.398438 293.5 C 112.597656 292.402344 111.601562 291.597656 111.199219 291.800781 C 110.800781 291.898438 110.402344 291.199219 110.199219 290 C 110 288.898438 109.402344 287.996094 108.898438 287.996094 C 108.300781 287.996094 108.101562 287.597656 108.402344 287.097656 C 108.699219 286.699219 108.5 284.796875 107.996094 282.996094 L 107.097656 279.699219 L 109.402344 281.902344 C 111.101562 283.5 111.898438 283.800781 112.199219 282.902344 Z M 101.003906 288.898438 C 101.003906 290 98.402344 291.101562 97.601562 290.300781 C 96.398438 289.097656 97.101562 287.996094 98.996094 287.996094 C 100.097656 287.996094 101.003906 288.398438 101.003906 288.898438 Z M 101.003906 288.898438 "/>
<path style=" stroke:none;fill-rule:nonzero;fill:rgb(0%,0%,0%);fill-opacity:1;" d="M 100.097656 242.601562 C 100.097656 243.699219 100.402344 244 100.699219 243.199219 C 101.003906 242.5 100.898438 241.597656 100.601562 241.300781 C 100.300781 240.902344 100 241.5 100.097656 242.601562 Z M 100.097656 242.601562 "/>
<path style=" stroke:none;fill-rule:nonzero;fill:rgb(0%,0%,0%);fill-opacity:1;" d="M 111.199219 289.5 C 111.199219 291.101562 111.398438 291.699219 111.699219 290.699219 C 111.898438 289.800781 111.898438 288.398438 111.699219 287.703125 C 111.398438 287.097656 111.199219 287.800781 111.199219 289.5 Z M 111.199219 289.5 "/>
<path style=" stroke:none;fill-rule:nonzero;fill:rgb(0%,0%,0%);fill-opacity:1;" d="M 384.402344 209.601562 C 384.699219 210.5 385 211.601562 385 212.097656 C 385 212.597656 385.300781 212.902344 385.800781 212.902344 C 388.398438 212.5 389 213.199219 388.398438 215.699219 C 387.199219 220.699219 386.496094 221.300781 385.101562 218.398438 C 384 216 384.097656 215.796875 385.402344 217.003906 C 386.800781 218.097656 387.003906 217.902344 387.003906 216.101562 C 387.003906 213.898438 385.597656 213.300781 384.5 215 C 384.097656 215.597656 383.300781 215.699219 382.703125 215.398438 C 381.902344 214.898438 381.902344 215.101562 382.800781 216.101562 C 383.402344 216.800781 384 218.097656 384 219 C 384 221.199219 390.902344 229.199219 392.097656 228.402344 C 392.601562 228.097656 393 228.199219 392.902344 228.699219 C 392.5 230.699219 393.097656 231.398438 394.101562 230 C 395 228.800781 395.097656 228.800781 394.597656 230.300781 C 394.300781 231.300781 394.5 233.101562 395.097656 234.203125 C 395.902344 235.699219 395.902344 236.101562 395 235.5 C 394.402344 235.101562 393.398438 233.601562 392.800781 232.199219 C 392.199219 230.597656 391.597656 230 391.300781 230.699219 C 391 231.398438 390.101562 232 389.199219 232 C 387.703125 231.902344 387.703125 231.800781 389.300781 230.5 C 391.101562 229.199219 391.101562 229.097656 389 228 C 387.902344 227.398438 386.398438 227.097656 385.699219 227.398438 C 384.796875 227.703125 384.796875 227.898438 385.800781 227.898438 C 387.5 228 387.296875 231 385.597656 231 C 384.796875 231 384 230.402344 383.800781 229.796875 C 383.5 229 382.902344 229.300781 382.199219 230.597656 C 380.5 233.898438 383.898438 236.496094 390.101562 236.601562 C 395 236.699219 397.699219 237.800781 395.203125 238.699219 C 394.5 239 393.5 240.300781 393 241.597656 C 392.199219 243.699219 391.597656 243.898438 389.300781 243.300781 C 387.703125 242.902344 385.199219 242.699219 383.5 242.902344 C 381.902344 243.097656 379 243.300781 377.300781 243.398438 C 374.902344 243.5 373.996094 244 373.996094 245.203125 C 373.996094 247.398438 379.597656 251.5 380.597656 249.902344 C 381.101562 249.101562 381.5 249.199219 382.097656 250.097656 C 382.5 250.800781 383.199219 251.101562 383.601562 250.800781 C 384.601562 249.699219 381.800781 247.5 379 247.199219 C 373.800781 246.5 374.699219 245 380.199219 245.097656 C 384.796875 245.203125 386 245.601562 386.898438 247.398438 C 387.800781 249.101562 387.996094 249.101562 387.5 247.601562 C 386.699219 245 388.898438 243.800781 390.902344 245.800781 C 393 247.800781 395.300781 254.300781 393.601562 253.601562 C 393 253.199219 391.699219 252.703125 390.796875 252.398438 C 389.800781 252 389 251.398438 389 250.898438 C 389 250.402344 388.601562 250 387.996094 250 C 387.5 250 387.003906 250.699219 387.003906 251.5 C 387.003906 252.800781 389.199219 253.601562 390.300781 252.703125 C 390.5 252.601562 391.398438 253.097656 392.199219 253.699219 C 393 254.398438 394.699219 254.796875 395.902344 254.503906 C 397.601562 254.199219 398 254.503906 397.601562 255.5 C 397.296875 256.398438 397.601562 258.300781 398.199219 259.796875 C 398.800781 261.300781 399.398438 263.199219 399.398438 264 C 399.503906 265 400.496094 265.5 402.5 265.5 C 404.503906 265.5 405.5 266 405.5 267.003906 C 405.5 267.800781 405.898438 268.800781 406.300781 269.101562 C 406.800781 269.402344 406.398438 270 405.5 270.300781 C 404.597656 270.699219 404.199219 270.601562 404.503906 270 C 404.796875 269.402344 404.398438 269 403.601562 269 C 402.703125 269 402 269.699219 402 270.601562 C 402 271.800781 401.101562 271.398438 398.5 269.101562 C 396.597656 267.402344 393.699219 265.398438 392.097656 264.5 C 390.5 263.699219 388.898438 262.097656 388.503906 261 C 388.199219 259.898438 386.800781 258.199219 385.402344 257.097656 C 383.5 255.597656 383.300781 255.101562 384.5 254.597656 C 385.300781 254.300781 386 253.296875 386 252.398438 C 386 251.597656 385.402344 251.003906 384.796875 251.300781 C 384.097656 251.5 383.601562 252.300781 383.800781 252.898438 C 383.898438 253.699219 383.5 253.800781 382.300781 253.199219 C 378.296875 251.101562 376.199219 255.800781 379.796875 258.699219 C 380.699219 259.5 381 259.898438 380.402344 259.601562 C 378.898438 258.898438 376.699219 266.5 377.601562 269.300781 C 378.5 272.398438 388.300781 281.800781 391.101562 282.398438 C 392.402344 282.703125 396.300781 283.101562 399.796875 283.300781 C 408.300781 283.800781 409.601562 285.101562 408.199219 292.199219 C 407.703125 295.097656 407.398438 297.699219 407.597656 298 C 408.601562 298.898438 409.796875 295.496094 410.5 290.101562 C 411.199219 284.601562 414.898438 278.296875 416.5 279.796875 C 417.003906 280.199219 417.003906 279.902344 416.597656 279.199219 C 416.199219 278.5 416.5 278 417.402344 278 C 418.398438 278 418.699219 277.398438 418.398438 276.5 C 418 275.699219 418.5 274.796875 419.402344 274.398438 C 420.300781 274.101562 421 273.199219 421 272.601562 C 421 271.902344 421.703125 270.496094 422.601562 269.402344 C 423.402344 268.398438 423.800781 268.199219 423.402344 269 C 423 269.898438 423.601562 269.699219 424.699219 268.5 C 425.800781 267.402344 426.398438 266 426.003906 265.5 C 424.796875 264.097656 426.003906 259.203125 427.601562 258.601562 C 429.398438 257.902344 430.402344 259.796875 429 261.496094 C 428.296875 262.402344 428.199219 262.996094 428.898438 263.503906 C 430 264.097656 428.5 267.800781 426.5 269.199219 C 425.898438 269.699219 426.003906 270 426.800781 270 C 427.398438 270 428 270.699219 428 271.597656 C 428 273.601562 423.5 278 421.398438 278 C 420.699219 278 420 278.601562 420 279.398438 C 420 280.199219 419.402344 281.101562 418.800781 281.398438 C 418.097656 281.699219 418.398438 281.800781 419.5 281.699219 C 420.601562 281.5 421.398438 280.800781 421.199219 280.101562 C 421.101562 279.398438 421.300781 279.097656 421.800781 279.398438 C 422.296875 279.699219 424.199219 278.402344 426.003906 276.5 C 429.398438 273 430.898438 268.199219 431 260.199219 C 431 255.597656 428.097656 244 426.902344 244 C 426.5 244 425.699219 245.203125 425.097656 246.703125 C 423 251.800781 420.800781 255.101562 419.402344 255.699219 C 418.601562 256 416.800781 258.300781 415.5 260.902344 C 412.5 266.597656 410.597656 269 409.097656 269 C 407.199219 269 407.902344 266.101562 410 265 C 412.003906 263.898438 412.800781 260 411.101562 260 C 410.597656 260 410.402344 261 410.699219 262.199219 C 411.101562 264.097656 410.902344 263.898438 409.601562 261.601562 C 407.597656 257.996094 407.597656 256.902344 409.699219 257.703125 C 411 258.199219 411.199219 257.902344 410.699219 256.601562 C 410.300781 255.699219 410.402344 255.101562 410.800781 255.402344 C 411.199219 255.597656 412.902344 255.199219 414.699219 254.503906 C 419.699219 252.398438 426.398438 236.800781 421.398438 238.699219 C 420.300781 239.097656 420.203125 239.597656 420.902344 240.300781 C 422.199219 241.597656 422.296875 243.097656 421.300781 242.902344 C 419.300781 242.601562 418.800781 243.097656 419.898438 244.402344 C 420.800781 245.402344 420.699219 246 419.5 247 C 418.699219 247.699219 418 248.601562 418 249.101562 C 418 250.699219 414 254 412.097656 254 C 409.300781 254 408.800781 251.300781 411.300781 249.503906 C 412.5 248.699219 413.101562 248 412.597656 248 C 412.097656 248 412.296875 247.296875 412.996094 246.5 C 413.699219 245.699219 415.203125 245 416.398438 245 C 418.097656 245 418.199219 244.800781 417.003906 244 C 415.699219 243.097656 415.699219 242.800781 417.097656 241.699219 C 418 241.101562 418.5 240 418.300781 239.402344 C 418.097656 238.699219 418.601562 237.5 419.5 236.601562 C 421.300781 234.796875 423.5 234.402344 422.5 236 C 422.199219 236.496094 422.398438 237.003906 422.902344 237.003906 C 423.5 237.003906 423.996094 235.800781 423.898438 234.203125 C 423.898438 232.703125 423.601562 232.097656 423.300781 232.703125 C 422.601562 234.601562 421 234.300781 421 232.199219 C 421 230.898438 420.800781 230.800781 420.097656 231.800781 C 419.5 232.902344 419.101562 232.902344 418.300781 231.800781 C 417.5 230.898438 417.800781 229.503906 419.199219 227 C 420.902344 224.101562 421.101562 223.898438 420.601562 226.101562 C 420.203125 228 420.496094 228.699219 421.5 228.699219 C 423.601562 228.699219 423.300781 225.601562 421 223.5 C 419.199219 221.800781 419 221.800781 419 223.402344 C 419 225.496094 416.199219 230 413.800781 231.800781 C 412.800781 232.5 412.003906 233.601562 412.003906 234.203125 C 412.003906 234.796875 410.699219 236.699219 409.097656 238.503906 L 406.199219 241.800781 L 403.402344 239.898438 C 399.796875 237.5 399.101562 237.5 399.699219 239.898438 C 400 241 399.503906 242.003906 398.601562 242.296875 C 396.300781 243.199219 395.800781 241.597656 397.5 238.398438 C 398.699219 236 398.699219 235.5 397.296875 234.5 C 396.5 233.898438 396 232.5 396.300781 231.398438 C 396.703125 229.796875 396.800781 229.902344 396.902344 231.902344 C 397 233.402344 397.5 234 398.402344 233.699219 C 399.101562 233.402344 400.300781 233.699219 400.898438 234.300781 C 402.5 235.902344 405.300781 228.402344 405.101562 222.699219 C 405 218.699219 404.398438 216.800781 402.300781 213.101562 C 401.902344 212.5 397.601562 218 396.902344 219.898438 C 396.597656 220.800781 395.699219 221.5 394.898438 221.5 C 394 221.5 393.601562 222.5 393.699219 224.503906 C 393.898438 226.398438 393.601562 227 393.097656 226.199219 C 392.699219 225.402344 391.898438 224.902344 391.398438 225.097656 C 389.898438 225.402344 388.300781 221.199219 388.800781 218 C 389 216.398438 389.597656 215 390 215 C 391.5 215 392.097656 220.203125 390.796875 221.800781 C 389.597656 223.199219 389.800781 223.199219 391.800781 222.101562 C 393.300781 221.300781 393.898438 220.300781 393.601562 219.300781 C 393.300781 218.5 393 217.199219 393 216.398438 C 393 215.699219 391.398438 214 389.5 212.800781 C 387.597656 211.496094 386 209.898438 386 209.203125 C 386 208.601562 385.5 207.996094 384.898438 207.996094 C 384.300781 207.996094 384.097656 208.699219 384.402344 209.601562 Z M 403.5 216.898438 C 403.800781 217.402344 403.601562 218.199219 403 218.5 C 401.5 219.402344 398.699219 218.199219 399.503906 217.003906 C 400.300781 215.699219 402.703125 215.699219 403.5 216.898438 Z M 400 220 C 400 220.699219 400.699219 220.699219 402 220 C 404 218.898438 404.097656 219.101562 403.601562 223.097656 C 403.296875 225.402344 402.5 227.703125 401.800781 228.199219 C 400.800781 228.800781 400.800781 229 401.800781 229 C 403.800781 229 402.703125 231.199219 400.203125 232.097656 C 398.601562 232.703125 398 232.597656 398 231.5 C 398 230.699219 398.402344 230 398.800781 230 C 399.300781 230 399.699219 229.300781 399.699219 228.5 C 399.699219 226.699219 398.402344 226.5 397.398438 228.097656 C 396.902344 228.898438 396.5 228.898438 396 228 C 395.097656 226.5 395.902344 223 397.101562 223 C 397.601562 223 398 222.101562 398 221 C 398 219.898438 398.5 219 398.996094 219 C 399.597656 219 400 219.5 400 220 Z M 418.5 233.699219 C 419.101562 235.5 417.199219 239.199219 415.902344 238.503906 C 415.398438 238.101562 415 239 415 240.398438 C 415 243.5 413.503906 243.800781 412.003906 241 C 411 239.097656 411.699219 236.496094 414.097656 233.402344 C 415.300781 231.902344 417.800781 232.097656 418.5 233.699219 Z M 389 234 C 391.597656 235.597656 389.300781 236.101562 385.902344 234.601562 C 382.800781 233.300781 382.703125 233.199219 385 233.101562 C 386.398438 233.101562 388.199219 233.402344 389 234 Z M 411 247 C 409.796875 248.699219 408.402344 249.796875 407.902344 249.503906 C 406.601562 248.699219 406.800781 249.597656 408.300781 252.097656 C 409.300781 253.800781 409.203125 254.300781 407.597656 255.597656 C 406.5 256.398438 405.898438 257 406.300781 257 C 406.699219 257 406.601562 257.902344 406 259 C 404.796875 261.199219 403 260.800781 403 258.402344 C 403 257.597656 403.402344 257.097656 403.898438 257.5 C 405.402344 258.402344 406.101562 254.503906 405.101562 251.597656 C 404.300781 249.699219 404.398438 249.101562 405.300781 249.300781 C 406 249.398438 406.601562 248.199219 406.800781 246.703125 C 407 245.097656 407.902344 243.097656 408.800781 242.097656 C 410.402344 240.5 410.597656 240.5 411.800781 242.199219 C 412.902344 243.699219 412.800781 244.5 411 247 Z M 403.296875 242.5 C 403.296875 243.097656 402.601562 243.601562 401.699219 243.800781 C 400.496094 244.101562 400.203125 243.699219 400.601562 242.5 C 401.300781 240.796875 403.097656 240.796875 403.296875 242.5 Z M 397 245 C 398.199219 247.199219 396.703125 247.699219 394 246 C 392.699219 245.097656 392.699219 244.898438 394 244 C 395.902344 242.699219 395.800781 242.699219 397 245 Z M 405 246.398438 C 405 246.703125 404.597656 247.199219 404 247.5 C 403.5 247.800781 403 247.601562 403 247.101562 C 403 246.5 403.5 246 404 246 C 404.597656 246 405 246.199219 405 246.398438 Z M 426.5 249.902344 C 426.101562 251.902344 425.402344 252.800781 424.699219 252.300781 C 423.996094 251.902344 424.101562 252.300781 424.796875 253.296875 C 425.699219 254.300781 425.898438 256 425.496094 257.996094 C 424.902344 260.902344 424.699219 261 423.402344 259.300781 C 422.101562 257.703125 422.101562 257.800781 423 260.402344 C 424.101562 263.398438 423.5 267.003906 421.902344 267.003906 C 421.398438 267.003906 421 267.800781 421 268.800781 C 421 269.800781 419.898438 271.703125 418.5 273 C 417.199219 274.199219 416.199219 275.601562 416.300781 275.898438 C 416.398438 276.300781 415.5 277.800781 414.300781 279.398438 C 412.996094 281 412.003906 281.601562 412.003906 280.898438 C 412.003906 279.796875 411.800781 279.796875 411 281 C 410.5 281.800781 410 282 410 281.5 C 410 279.398438 413.601562 275 414.597656 276.003906 C 415.101562 276.5 415.597656 275.402344 415.796875 272.902344 C 416 269.5 415.796875 269 413.898438 269 C 412.703125 269 411.601562 269.800781 411.300781 271 C 410.699219 273.300781 407.996094 273.699219 407.996094 271.5 C 407.996094 270.699219 408.699219 270 409.5 270 C 410.402344 270 411.300781 269.300781 411.601562 268.5 C 412.003906 267.699219 412.597656 267.296875 413.101562 267.601562 C 413.601562 267.902344 414 267.601562 414 267.003906 C 414 266.398438 414.5 266.199219 415.203125 266.597656 C 415.902344 267.003906 416 266.898438 415.597656 266.199219 C 414.699219 264.699219 417.402344 258.601562 419.699219 256.902344 C 421.597656 255.5 424.300781 251.398438 425.601562 247.699219 C 426.597656 244.898438 427.300781 246.5 426.5 249.902344 Z M 397 248.5 C 397 249.699219 395.097656 249.699219 394.699219 248.5 C 394.300781 247.601562 394.597656 247.296875 395.601562 247.699219 C 396.300781 248 397 248.402344 397 248.5 Z M 402.398438 252.097656 C 402.097656 252.601562 402.398438 253 402.898438 253 C 403.5 253 404 253.699219 404 254.597656 C 404 255.898438 403.699219 256 402.703125 255.101562 C 400.898438 253.601562 399.902344 254.796875 400.601562 257.5 C 400.898438 258.800781 400.601562 260.101562 399.902344 260.5 C 398.996094 261.101562 398.800781 260.699219 399.199219 259.203125 C 399.597656 257.996094 399.503906 257 398.996094 257 C 398.601562 257 398.300781 256.199219 398.402344 255.199219 C 398.402344 254.300781 398 253.601562 397.296875 253.699219 C 396.703125 253.800781 395.902344 253.296875 395.601562 252.5 C 395.300781 251.5 395.699219 251.003906 396.902344 251.003906 C 397.902344 251.003906 399.101562 251.800781 399.398438 252.703125 C 400 254.199219 400.203125 254.199219 401.003906 253 C 401.597656 252 401.398438 251.300781 400.402344 250.699219 C 399.597656 250.203125 399.300781 249.398438 399.597656 248.800781 C 400.097656 248.097656 400.800781 248.300781 401.597656 249.503906 C 402.300781 250.496094 402.703125 251.699219 402.398438 252.097656 Z M 428.699219 252.199219 C 428.699219 252.898438 429.097656 254.199219 429.398438 255.101562 C 429.902344 256.199219 429.503906 257 428.5 257.398438 C 427.199219 257.902344 427 257.398438 427.398438 254.699219 C 427.898438 251.003906 427.898438 251.003906 428.296875 251.003906 C 428.5 251.003906 428.699219 251.597656 428.699219 252.199219 Z M 387.402344 261.398438 C 388.300781 262.800781 389 265.203125 389 266.699219 C 389 268.800781 388.699219 269.101562 387.996094 268 C 387.199219 266.800781 387.003906 266.800781 386.398438 268.398438 C 385.902344 269.597656 386.199219 270.601562 387.402344 271.199219 C 388.300781 271.703125 388.800781 272.5 388.503906 273.097656 C 388.101562 273.601562 388.601562 273.996094 389.5 273.996094 C 390.300781 273.996094 391.300781 274.699219 391.597656 275.496094 C 392.402344 277.398438 393.699219 277.398438 393.699219 275.496094 C 393.699219 274.699219 393.398438 274.199219 393.199219 274.503906 C 392.199219 275.402344 390.101562 271.398438 390 268.699219 C 390 264.699219 392.296875 265.796875 393.097656 270.097656 C 393.699219 273.5 393.699219 273.5 393.898438 270.496094 C 394 268.398438 394.300781 267.902344 394.898438 268.898438 C 395.402344 269.597656 396.300781 269.898438 396.902344 269.597656 C 397.601562 269.101562 398 270 398 272.199219 C 398 274.503906 398.300781 275.097656 398.898438 274.101562 C 399.597656 273 400 273.199219 401.003906 275 C 402.300781 277.5 401.398438 279.199219 399.902344 277 C 399.101562 275.800781 398.898438 276.003906 399.300781 277.703125 C 400 280.800781 398.199219 280.597656 396.800781 277.5 C 395.800781 275.203125 395.496094 275.097656 394.699219 276.597656 C 394 277.800781 394 278.5 394.699219 278.699219 C 395.300781 278.898438 396.597656 279.699219 397.601562 280.5 C 399.398438 281.800781 399.199219 281.902344 395.800781 282 C 393.800781 282 391.800781 281.5 391.5 281 C 391.199219 280.402344 390 280 389 280 C 386.601562 280 384.402344 276.398438 386.300781 275.699219 C 386.898438 275.402344 386.496094 275.097656 385.199219 275.097656 C 384 275 382.703125 274.300781 382.398438 273.5 C 382 272.699219 381.101562 272 380.300781 272 C 379.199219 272 379 271.300781 379.398438 269.402344 C 379.796875 267.902344 379.699219 267.097656 379.097656 267.402344 C 378.097656 268.097656 378.199219 266.597656 379.503906 263.699219 C 380.5 261.300781 381.902344 261.601562 382.597656 264.5 C 382.902344 265.902344 383.699219 267.003906 384.402344 267.003906 C 385 267.003906 384.796875 267.5 384 268.097656 C 382.703125 269 382.703125 269.101562 384 268.800781 C 384.898438 268.5 385.5 266.800781 385.699219 264.097656 C 386 260.199219 385.800781 259.796875 384 260.300781 C 382.5 260.699219 382 260.300781 382 258.898438 C 382 257.902344 381.699219 257.097656 381.300781 257.097656 C 379.597656 257.398438 378.898438 256.902344 379.503906 256 C 380.300781 254.699219 385.101562 258.101562 387.402344 261.398438 Z M 403 263.503906 C 403 264.300781 402.300781 265 401.5 265 C 399.902344 265 399.503906 263.800781 400.699219 262.703125 C 401.800781 261.496094 403 261.898438 403 263.503906 Z M 407.996094 263.601562 C 407.996094 264.5 407.5 265 406.800781 264.800781 C 405 264.199219 404.699219 262.003906 406.398438 262.003906 C 407.300781 262.003906 407.996094 262.703125 407.996094 263.601562 Z M 415 271.5 C 415 272.296875 414.597656 273 414 273 C 413.503906 273 412.996094 272.296875 412.996094 271.5 C 412.996094 270.699219 413.503906 270 414 270 C 414.597656 270 415 270.699219 415 271.5 Z M 404.097656 276.699219 C 403.199219 278.199219 403.097656 278.097656 403.402344 276.003906 C 404.199219 271.597656 404.199219 271.5 404.699219 273.199219 C 404.902344 274.199219 404.699219 275.699219 404.097656 276.699219 Z M 411.800781 275.800781 C 412.003906 276.5 411.601562 276.800781 410.597656 276.398438 C 409.699219 276.101562 409 275.300781 409 274.796875 C 409 273.5 411.300781 274.300781 411.800781 275.800781 Z M 407 277 C 407 277.5 406.601562 278 406 278 C 405.5 278 405 277.5 405 277 C 405 276.398438 405.5 276.003906 406 276.003906 C 406.601562 276.003906 407 276.398438 407 277 Z M 408.300781 282.199219 C 408.800781 284.097656 407.5 284.699219 406.5 282.996094 C 406.101562 282.398438 405.5 282.199219 405 282.5 C 404.503906 282.800781 403.800781 282.5 403.402344 281.902344 C 403 281.101562 403.097656 281 403.800781 281.398438 C 404.503906 281.800781 405 281.699219 405 281.199219 C 405 279.503906 407.902344 280.300781 408.300781 282.199219 Z M 408.300781 282.199219 "/>
<path style=" stroke:none;fill-rule:nonzero;fill:rgb(0%,0%,0%);fill-opacity:1;" d="M 399.101562 222.902344 C 396.902344 224.300781 398.699219 226.199219 401.101562 225 C 402.199219 224.398438 402.800781 223.5 402.5 222.902344 C 401.699219 221.800781 400.898438 221.800781 399.101562 222.902344 Z M 399.101562 222.902344 "/>
<path style=" stroke:none;fill-rule:nonzero;fill:rgb(0%,0%,0%);fill-opacity:1;" d="M 382.996094 273 C 382.996094 273.5 383.699219 273.699219 384.5 273.402344 C 385.300781 273 386 272.601562 386 272.398438 C 386 272.199219 385.300781 272 384.5 272 C 383.699219 272 382.996094 272.398438 382.996094 273 Z M 382.996094 273 "/>
<path style=" stroke:none;fill-rule:nonzero;fill:rgb(0%,0%,0%);fill-opacity:1;" d="M 382.703125 210.597656 C 382.300781 211 382 212.003906 382 212.902344 C 382 214 382.300781 214.097656 383.101562 213.300781 C 383.699219 212.703125 384.097656 211.699219 383.800781 211 C 383.601562 210.402344 383.101562 210.199219 382.703125 210.597656 Z M 382.703125 210.597656 "/>
<path style=" stroke:none;fill-rule:nonzero;fill:rgb(0%,0%,0%);fill-opacity:1;" d="M 76.199219 227.800781 C 74.101562 229.796875 71.800781 232.5 71.199219 233.699219 C 69.5 236.800781 69.699219 240.699219 71.5 240.699219 C 72.601562 240.699219 72.699219 240.300781 71.902344 239.300781 C 71.199219 238.503906 71.199219 237.996094 71.703125 237.996094 C 72.296875 237.996094 72.5 236.898438 72.199219 235.5 C 71.902344 233.5 72.199219 232.996094 73.898438 232.996094 C 75.300781 232.996094 75.800781 232.5 75.402344 231.5 C 75 230.402344 75.800781 229.597656 78 228.898438 C 80.300781 228.097656 80.800781 227.5 79.902344 226.902344 C 78.898438 226.300781 79.199219 225.800781 81 225.097656 C 82.597656 224.503906 82.902344 224.101562 81.800781 224.101562 C 80.898438 223.996094 78.402344 225.699219 76.199219 227.800781 Z M 76.199219 227.800781 "/>
<path style=" stroke:none;fill-rule:nonzero;fill:rgb(0%,0%,0%);fill-opacity:1;" d="M 375.601562 226.699219 C 374.796875 227.601562 378.097656 232 379.597656 232 C 380.402344 232 381 231.5 381 231 C 381 230.402344 380.597656 230 380 230 C 379.503906 230 379 229.503906 379 229 C 379 228.402344 380.199219 228 381.699219 228 C 383.101562 228 384.097656 227.800781 383.898438 227.601562 C 383.101562 227 376.199219 226.199219 375.601562 226.699219 Z M 375.601562 226.699219 "/>
<path style=" stroke:none;fill-rule:nonzero;fill:rgb(0%,0%,0%);fill-opacity:1;" d="M 77.300781 235.597656 C 76.597656 235.902344 76.398438 236.800781 76.699219 237.597656 C 77 238.503906 76.597656 239 75.496094 239 C 74.199219 239 73.996094 239.402344 74.699219 240.203125 C 75.800781 241.699219 73.601562 248 72.101562 248 C 70.203125 248 69.699219 245.699219 71.398438 244.5 C 72.902344 243.300781 72.902344 243.199219 71 242.699219 C 69.199219 242.199219 69 242.699219 69 246.800781 C 69 250.402344 69.300781 251.101562 70.203125 250.203125 C 70.902344 249.503906 71.800781 248.996094 72.398438 248.996094 C 72.902344 248.996094 73 249.300781 72.699219 249.699219 C 72.296875 250 72.5 250.800781 73 251.5 C 73.699219 252.300781 73.5 252.703125 72.5 252.703125 C 71.703125 252.703125 71.398438 252.199219 71.703125 251.597656 C 72.101562 250.898438 71.800781 251.003906 71 251.699219 C 70 252.601562 70.097656 253.800781 71.5 257.902344 C 73.097656 262.800781 75 263.898438 75 260.101562 C 75 259.097656 75.699219 257.703125 76.5 257 C 77.300781 256.300781 78 255.300781 78 254.699219 C 78 254.097656 76.800781 255.199219 75.402344 257.097656 C 73 260.101562 72.800781 260.199219 73.402344 257.996094 C 73.699219 256.601562 73.996094 254.902344 73.996094 254.199219 C 73.996094 253.5 74.503906 253.199219 75.097656 253.5 C 75.699219 253.898438 75.699219 253.402344 74.902344 252.300781 C 73.996094 250.800781 73.996094 249.597656 74.796875 247.398438 C 75.402344 245.699219 75.898438 245.203125 75.898438 246.199219 C 76.003906 247.199219 76.5 248 77 248 C 78.296875 248 78.296875 247.398438 76.800781 245 C 75.800781 243.398438 75.898438 242.601562 77.800781 240.101562 C 80.898438 235.902344 80.699219 234.300781 77.300781 235.597656 Z M 77.300781 235.597656 "/>
<path style=" stroke:none;fill-rule:nonzero;fill:rgb(0%,0%,0%);fill-opacity:1;" d="M 78.601562 241.699219 C 78 243.097656 78.097656 243.199219 79.097656 242.296875 C 79.796875 241.597656 80.101562 240.796875 79.796875 240.5 C 79.503906 240.203125 78.898438 240.699219 78.601562 241.699219 Z M 78.601562 241.699219 "/>
<path style=" stroke:none;fill-rule:nonzero;fill:rgb(0%,0%,0%);fill-opacity:1;" d="M 385 255.402344 C 385 255.597656 386.300781 256.300781 387.902344 256.800781 C 390.398438 257.703125 390.796875 257.597656 390.300781 256.398438 C 389.898438 255.199219 385 254.300781 385 255.402344 Z M 385 255.402344 "/>
<path style=" stroke:none;fill-rule:nonzero;fill:rgb(0%,0%,0%);fill-opacity:1;" d="M 394.5 257.996094 C 394.101562 258.601562 393.398438 258.699219 392.800781 258.402344 C 392.097656 257.996094 392.003906 258.199219 392.402344 258.800781 C 393.398438 260.402344 394.699219 260.300781 395.402344 258.5 C 396 256.800781 395.402344 256.5 394.5 257.996094 Z M 394.5 257.996094 "/>
<path style=" stroke:none;fill-rule:nonzero;fill:rgb(0%,0%,0%);fill-opacity:1;" d="M 175 319 C 173.402344 322.101562 174.503906 324.300781 179.503906 327.898438 C 184.300781 331.300781 185.199219 334.203125 182.300781 335.902344 C 181.300781 336.496094 181 337.003906 181.5 337.003906 C 183.5 337.003906 187.003906 333.898438 187.003906 332 C 187.003906 331 184.796875 328.199219 182 325.898438 C 177.097656 321.800781 175.699219 318.699219 178.296875 317.699219 C 179 317.402344 178.800781 317.097656 177.800781 317.097656 C 176.800781 317.003906 175.601562 317.902344 175 319 Z M 175 319 "/>
<path style=" stroke:none;fill-rule:nonzero;fill:rgb(0%,0%,0%);fill-opacity:1;" d="M 185 319.5 C 186.398438 320.300781 187.996094 320.902344 188.503906 320.902344 C 189.097656 320.902344 188.398438 320.300781 187.003906 319.5 C 185.597656 318.699219 184.097656 318.097656 183.5 318.097656 C 182.996094 318.097656 183.601562 318.699219 185 319.5 Z M 185 319.5 "/>
<path style=" stroke:none;fill-rule:nonzero;fill:rgb(0%,0%,0%);fill-opacity:1;" d="M 314.597656 321.101562 C 313.503906 325.800781 313.503906 339 314.5 338.699219 C 315.101562 338.503906 315.398438 337.199219 315.203125 335.800781 C 315 334.097656 315.597656 332.996094 317.199219 332.199219 L 319.5 331 L 317.296875 331.601562 C 315.203125 332.097656 315 331.800781 315 328.097656 C 315 325.800781 315.398438 323.996094 315.796875 323.996094 C 317.402344 323.996094 321.199219 328.800781 320.496094 329.902344 C 320.203125 330.5 320.601562 331 321.597656 331 C 322.5 331 323.800781 331.800781 324.503906 332.703125 C 325.496094 334 326.199219 334.203125 327.601562 333.5 C 329.300781 332.597656 328.699219 331.699219 322.296875 325.601562 C 315.5 319.199219 315.101562 318.898438 314.597656 321.101562 Z M 314.597656 321.101562 "/>
<path style=" stroke:none;fill-rule:nonzero;fill:rgb(0%,0%,0%);fill-opacity:1;" d="M 188.101562 323.699219 C 187.199219 324.699219 187.097656 325.496094 187.902344 326.300781 C 188.601562 327 189.097656 326.902344 189.597656 325.699219 C 190.5 323.199219 189.699219 322 188.101562 323.699219 Z M 188.101562 323.699219 "/>
<path style=" stroke:none;fill-rule:nonzero;fill:rgb(0%,0%,0%);fill-opacity:1;" d="M 193.300781 324.796875 C 193.199219 326.300781 192.199219 330.199219 191.101562 333.5 C 190 336.800781 189.199219 339.5 189.300781 339.597656 C 189.402344 339.800781 190.902344 340.101562 192.5 340.5 C 194.597656 341 195.097656 340.902344 194.101562 340.203125 C 192.902344 339.402344 193 338.199219 194.5 332.5 C 195.496094 328.800781 196.902344 325.203125 197.601562 324.503906 C 198.699219 323.5 198.5 323.097656 196.703125 322.601562 C 193.5 321.800781 193.5 321.800781 193.300781 324.796875 Z M 193.300781 324.796875 "/>
<path style=" stroke:none;fill-rule:nonzero;fill:rgb(0%,0%,0%);fill-opacity:1;" d="M 297.199219 324.398438 C 293.097656 325.601562 289.898438 326.800781 289.898438 327.199219 C 290 327.703125 290 328.800781 290 329.699219 C 290.101562 331 290.5 330.699219 291.597656 328.699219 C 292.402344 327.199219 293.699219 326.003906 294.402344 326.003906 C 295.699219 326.003906 299.199219 336.496094 299.199219 340.597656 C 299.199219 342.199219 299.699219 342.601562 301.597656 342.199219 C 304.097656 341.699219 304.503906 341 303.097656 339.402344 C 302.703125 338.898438 301.5 335.597656 300.601562 332.097656 C 298.5 324.699219 299.398438 322.699219 303.402344 325.402344 C 306 327.097656 306.398438 326.800781 305.199219 323.898438 C 304.597656 322.398438 303.800781 322.5 297.199219 324.398438 Z M 297.199219 324.398438 "/>
<path style=" stroke:none;fill-rule:nonzero;fill:rgb(0%,0%,0%);fill-opacity:1;" d="M 200.800781 324.699219 C 201.5 325 202.398438 324.902344 202.703125 324.597656 C 203.097656 324.300781 202.5 323.996094 201.398438 324.101562 C 200.300781 324.101562 200 324.398438 200.800781 324.699219 Z M 200.800781 324.699219 "/>
<path style=" stroke:none;fill-rule:nonzero;fill:rgb(0%,0%,0%);fill-opacity:1;" d="M 205.800781 326.398438 C 207 327.398438 207.996094 328.898438 208.101562 329.796875 C 208.101562 331 208.402344 330.699219 209.097656 329.097656 C 210.199219 326.300781 210.300781 326.300781 206.5 325.496094 C 203.5 324.796875 203.5 324.796875 205.800781 326.398438 Z M 205.800781 326.398438 "/>
<path style=" stroke:none;fill-rule:nonzero;fill:rgb(0%,0%,0%);fill-opacity:1;" d="M 212.003906 329.699219 C 212.003906 331.300781 211.398438 335.300781 210.699219 338.699219 C 209.402344 344.699219 209.402344 344.800781 211.496094 345.203125 C 213.300781 345.601562 213.601562 345.300781 213.199219 343.300781 C 212.902344 341.398438 213.199219 341 215.101562 340.902344 C 216.800781 340.796875 217.003906 340.597656 215.796875 340.300781 C 213.800781 339.800781 213.699219 338.800781 214.898438 331.699219 C 215.597656 327.5 215.5 327 213.800781 327 C 212.5 327 212.003906 327.800781 212.003906 329.699219 Z M 212.003906 329.699219 "/>
<path style=" stroke:none;fill-rule:nonzero;fill:rgb(0%,0%,0%);fill-opacity:1;" d="M 171.703125 329.300781 C 170.601562 332.300781 170.800781 332.703125 175 334.402344 C 180.300781 336.496094 181.5 336.398438 177 334.203125 C 174.902344 333.199219 173.402344 331.5 173 330 C 172.5 327.800781 172.296875 327.703125 171.703125 329.300781 Z M 171.703125 329.300781 "/>
<path style=" stroke:none;fill-rule:nonzero;fill:rgb(0%,0%,0%);fill-opacity:1;" d="M 219.800781 328.898438 C 224.101562 330 224.398438 330.402344 224.398438 334.402344 C 224.398438 338.398438 222.601562 341 219.800781 341 C 218 341 218 341.101562 219.5 342.601562 C 220.402344 343.5 220.902344 344.898438 220.601562 345.601562 C 220.300781 346.5 220.800781 347 221.902344 347 C 223 347 224.597656 347.296875 225.601562 347.699219 C 227 348.199219 226.902344 347.699219 225 345.203125 L 222.699219 342.097656 L 225 340.203125 C 227.703125 337.996094 228.199219 332.703125 225.800781 330.402344 C 225 329.597656 222.601562 328.699219 220.402344 328.5 C 216.597656 328 216.597656 328.097656 219.800781 328.898438 Z M 219.800781 328.898438 "/>
<path style=" stroke:none;fill-rule:nonzero;fill:rgb(0%,0%,0%);fill-opacity:1;" d="M 277.601562 330.402344 C 277.199219 332.199219 277.703125 333.601562 279.503906 335.597656 C 282.597656 338.898438 282.703125 340.699219 279.796875 341.300781 C 278.199219 341.597656 278.5 341.800781 280.800781 341.898438 C 283.300781 342.003906 284.300781 342.5 284.699219 344 C 285 345.097656 285.699219 346 286.398438 346 C 287.800781 346 290.902344 344 289.5 344 C 288.898438 344 286.300781 340.398438 283.601562 336 C 280.898438 331.601562 278.601562 328 278.5 328 C 278.296875 328 277.898438 329.097656 277.601562 330.402344 Z M 277.601562 330.402344 "/>
<path style=" stroke:none;fill-rule:nonzero;fill:rgb(0%,0%,0%);fill-opacity:1;" d="M 231.800781 337.5 C 232 342.003906 231.699219 345.601562 231.101562 346.398438 C 230.199219 347.5 230.800781 347.902344 233.699219 348.402344 C 235.800781 348.699219 239.898438 348.996094 242.800781 348.996094 C 247.800781 348.996094 248 348.898438 248 346.300781 L 248 343.601562 L 246.398438 345.800781 C 245.203125 347.601562 243.898438 348 239.898438 348 L 235 348 L 235 343.898438 C 235 339.898438 235.101562 339.800781 237.996094 340.203125 C 239.898438 340.5 241 340.203125 241 339.5 C 241 338.800781 239.898438 338.503906 237.996094 338.800781 C 235.101562 339.199219 235 339.097656 235 335.199219 C 235 331.398438 235.199219 331.101562 238.300781 330.699219 C 240.597656 330.402344 240.101562 330.300781 236.496094 330.199219 L 231.5 330 Z M 231.800781 337.5 "/>
<path style=" stroke:none;fill-rule:nonzero;fill:rgb(0%,0%,0%);fill-opacity:1;" d="M 265.796875 334.898438 C 266.5 344.597656 266 344.898438 260.5 337.597656 C 256.800781 332.597656 255 331 253.097656 331 L 250.601562 331 L 252.601562 332.902344 C 253.800781 333.898438 256.902344 337.800781 259.5 341.398438 C 262.199219 345 264.898438 348 265.597656 348 C 266.5 348 267.003906 345.300781 267.199219 339 C 267.402344 333.402344 267.097656 330 266.5 330 C 265.902344 330 265.597656 332.097656 265.796875 334.898438 Z M 265.796875 334.898438 "/>
<path style=" stroke:none;fill-rule:nonzero;fill:rgb(0%,0%,0%);fill-opacity:1;" d="M 245.300781 332.097656 C 246.199219 332.597656 247 333.898438 247 334.796875 C 247 336.300781 247.199219 336.300781 248 335 C 249.699219 332.398438 249.101562 331 246.300781 331 C 243.898438 331.101562 243.800781 331.199219 245.300781 332.097656 Z M 245.300781 332.097656 "/>
<path style=" stroke:none;fill-rule:nonzero;fill:rgb(0%,0%,0%);fill-opacity:1;" d="M 197.5 332.996094 C 200.203125 334.203125 201.003906 334.203125 201.003906 332.996094 C 201.003906 332.398438 199.796875 332 198.300781 332.097656 C 195.800781 332.097656 195.699219 332.199219 197.5 332.996094 Z M 197.5 332.996094 "/>
<path style=" stroke:none;fill-rule:nonzero;fill:rgb(0%,0%,0%);fill-opacity:1;" d="M 251.902344 341.800781 C 251.699219 346.199219 251.902344 348.996094 252.5 348.996094 C 253.097656 348.996094 253.402344 346.800781 253.199219 343.800781 C 252.703125 334.796875 252.398438 334.203125 251.902344 341.800781 Z M 251.902344 341.800781 "/>
<path style=" stroke:none;fill-rule:nonzero;fill:rgb(0%,0%,0%);fill-opacity:1;" d="M 276.101562 336.601562 C 276.101562 337.703125 276.398438 337.996094 276.699219 337.199219 C 277 336.496094 276.902344 335.597656 276.597656 335.300781 C 276.300781 334.898438 276.003906 335.5 276.101562 336.601562 Z M 276.101562 336.601562 "/>
<path style=" stroke:none;fill-rule:nonzero;fill:rgb(0%,0%,0%);fill-opacity:1;" d="M 204.097656 340.597656 C 203.199219 341.699219 201.699219 342.003906 199.101562 341.597656 C 195.800781 341.101562 195.800781 341.199219 199.902344 342.5 C 204.503906 344 205.898438 343.5 206 340.203125 C 206 338.699219 205.800781 338.699219 204.097656 340.597656 Z M 204.097656 340.597656 "/>
<path style=" stroke:none;fill-rule:nonzero;fill:rgb(0%,0%,0%);fill-opacity:1;" d="M 275 340.597656 C 275 341.597656 274.300781 343.699219 273.601562 345.203125 C 272.398438 347.5 272.398438 348 273.402344 348 C 274.699219 348 276.597656 340.300781 275.496094 339.199219 C 275.203125 338.898438 275 339.5 275 340.597656 Z M 275 340.597656 "/>
</g>
</svg>
